Coordinates
version=1
nRows=8
nColumns=63
inDegrees=yes

Units are S.I. units (second, meters, Newtons, ...)
If the header above contains a line with 'inDegrees', this indicates whether rotational values are in degrees (yes) or radians (no).

endheader
time	pelvis_tilt	pelvis_list	pelvis_rotation	pelvis_tx	pelvis_ty	pelvis_tz	hip_flexion_r	hip_adduction_r	hip_rotation_r	knee_angle_r	knee_angle_r_beta	ankle_angle_r	subtalar_angle_r	mtp_angle_r	hip_flexion_l	hip_adduction_l	hip_rotation_l	knee_angle_l	knee_angle_l_beta	ankle_angle_l	subtalar_angle_l	mtp_angle_l	L5_S1_Flex_Ext	L5_S1_Lat_Bending	L5_S1_axial_rotation	L4_L5_Flex_Ext	L4_L5_Lat_Bending	L4_L5_axial_rotation	L3_L4_Flex_Ext	L3_L4_Lat_Bending	L3_L4_axial_rotation	L2_L3_Flex_Ext	L2_L3_Lat_Bending	L2_L3_axial_rotation	L1_L2_Flex_Ext	L1_L2_Lat_Bending	L1_L2_axial_rotation	L1_T12_Flex_Ext	L1_T12_Lat_Bending	L1_T12_axial_rotation	Abs_r3	Abs_r2	Abs_r1	Abs_t1	Abs_t2	neck_flexion	neck_bending	neck_rotation	arm_flex_r	arm_add_r	arm_rot_r	elbow_flex_r	pro_sup_r	wrist_flex_r	wrist_dev_r	arm_flex_l	arm_add_l	arm_rot_l	elbow_flex_l	pro_sup_l	wrist_flex_l	wrist_dev_l
5.033898	5.092407	-8.261094	85.734600	0.145371	0.991977	0.250858	-3.776709	2.611378	-9.152233	5.719659	0.099827	33.970221	13.290088	0.000000	-3.748835	0.565681	-1.559630	8.194701	0.143025	23.174610	-16.032542	0.000000	-0.223572	0.155230	0.079191	-0.415195	0.206456	0.084140	-0.367306	0.377427	0.084140	-0.255520	0.377427	0.069292	-0.207609	0.316545	0.064343	-0.127749	0.240452	0.059393	-1.596950	1.755995	0.440436	0.000000	0.000000	-1.686670	-0.117093	-5.460854	7.623563	-12.832343	62.614772	33.265991	87.012698	-3.056527	1.757401	6.256079	-14.251509	58.035588	40.872650	87.584563	-7.888269	-3.751138
5.050847	5.056647	-8.209850	85.974854	0.144874	0.991908	0.251723	-3.835789	2.591461	-9.323385	5.659123	0.098770	33.923568	13.162732	0.000000	-3.611334	0.588014	-1.360507	8.376430	0.146196	23.608208	-15.735956	0.000000	-0.242608	0.145601	0.041265	-0.450547	0.193650	0.043844	-0.398580	0.354015	0.043844	-0.277276	0.354015	0.036106	-0.225286	0.296910	0.033527	-0.138626	0.225537	0.030948	-1.732923	1.647072	0.229501	0.000000	0.000000	-2.029459	-0.027566	-4.885083	7.771620	-12.768333	62.734011	33.227730	86.967554	-3.392918	1.627998	6.290625	-14.311244	57.812018	41.023137	87.648307	-8.062971	-3.544946
5.067797	5.029610	-8.163475	86.245194	0.144332	0.991824	0.252610	-3.893113	2.584283	-9.498717	5.589467	0.097555	33.887082	13.031653	0.000000	-3.458686	0.601347	-1.104232	8.566209	0.149509	24.033532	-15.465282	0.000000	-0.261798	0.136958	0.005600	-0.486185	0.182154	0.005950	-0.430108	0.332999	0.005950	-0.299209	0.332999	0.004900	-0.243106	0.279285	0.004550	-0.149591	0.212148	0.004200	-1.869997	1.549295	0.031148	0.000000	0.000000	-2.320165	0.004249	-4.312217	7.891831	-12.711491	62.775536	33.192926	86.928120	-3.763943	1.491502	6.370283	-14.367952	57.640603	41.175410	87.727843	-8.187028	-3.299348
5.084746	5.010333	-8.126844	86.536131	0.143777	0.991725	0.253492	-3.940395	2.589198	-9.661541	5.518812	0.096321	33.861058	12.881611	0.000000	-3.291622	0.605004	-0.812375	8.760663	0.152902	24.426456	-15.216315	0.000000	-0.280403	0.129216	-0.025450	-0.520736	0.171858	-0.027040	-0.460674	0.314176	-0.027040	-0.320472	0.314176	-0.022268	-0.260382	0.263498	-0.020678	-0.160222	0.200156	-0.019087	-2.002889	1.461720	-0.141544	0.000000	0.000000	-2.560182	-0.045324	-3.772461	7.971812	-12.661600	62.726876	33.162735	86.899759	-4.189196	1.329743	6.498218	-14.429297	57.558087	41.331077	87.815089	-8.335158	-3.058747
5.101695	4.995953	-8.100425	86.845028	0.143187	0.991616	0.254341	-3.973560	2.599039	-9.817598	5.454960	0.095207	33.849439	12.724151	0.000000	-3.115884	0.605789	-0.492424	8.954633	0.156288	24.763993	-15.003077	0.000000	-0.298479	0.122461	-0.053488	-0.554305	0.162873	-0.056831	-0.490371	0.297751	-0.056831	-0.341131	0.297751	-0.046802	-0.277167	0.249722	-0.043459	-0.170551	0.189692	-0.040116	-2.132003	1.385301	-0.297482	0.000000	0.000000	-2.751407	-0.184207	-3.281258	8.027105	-12.623669	62.646158	33.131428	86.880838	-4.673705	1.136257	6.652785	-14.496389	57.509839	41.508169	87.916363	-8.500270	-2.813131
5.118644	4.990597	-8.089163	87.142718	0.142659	0.991500	0.255137	-3.980784	2.618566	-9.969245	5.409972	0.094422	33.860992	12.592712	0.000000	-2.935495	0.592433	-0.221929	9.145206	0.159614	25.048589	-14.771424	0.000000	-0.315093	0.116830	-0.074376	-0.585160	0.155384	-0.079025	-0.517667	0.284060	-0.079025	-0.360120	0.284060	-0.065079	-0.292596	0.238240	-0.060431	-0.180044	0.180970	-0.055782	-2.250679	1.321603	-0.413657	0.000000	0.000000	-2.903328	-0.422333	-2.853394	8.049828	-12.592923	62.519892	33.105501	86.863022	-5.205713	0.917944	6.814436	-14.565102	57.465845	41.683945	88.017802	-8.729849	-2.633888
5.135593	4.996562	-8.096738	87.420172	0.142165	0.991372	0.255857	-3.952907	2.646257	-10.083854	5.394156	0.094146	33.891007	12.464586	0.000000	-2.749401	0.566788	-0.019753	9.336494	0.162953	25.253758	-14.548390	0.000000	-0.329595	0.113205	-0.089565	-0.612092	0.150563	-0.095163	-0.541492	0.275247	-0.095163	-0.376695	0.275247	-0.078370	-0.306062	0.230848	-0.072772	-0.188331	0.175355	-0.067174	-2.354267	1.280600	-0.498135	0.000000	0.000000	-3.030935	-0.744690	-2.491808	8.040433	-12.579305	62.329943	33.101332	86.872308	-5.738542	0.714890	6.979154	-14.624618	57.451837	41.844409	88.101110	-9.096543	-2.541114
5.152542	5.017551	-8.124551	87.678000	0.141714	0.991230	0.256490	-3.883573	2.684432	-10.169690	5.419577	0.094589	33.942143	12.344632	0.000000	-2.560003	0.526052	0.132125	9.528570	0.166305	25.358936	-14.387401	0.000000	-0.341989	0.112182	-0.104659	-0.635108	0.149201	-0.111200	-0.561854	0.272758	-0.111200	-0.390859	0.272758	-0.091576	-0.317571	0.228761	-0.085035	-0.195413	0.173769	-0.078494	-2.442794	1.269020	-0.582080	0.000000	0.000000	-3.144865	-1.123641	-2.158584	8.020521	-12.579397	62.107493	33.120430	86.907716	-6.220203	0.562670	7.109536	-14.672201	57.365078	42.003819	88.161578	-9.519862	-2.490825
